<svg xmlns="http://www.w3.org/2000/svg" width="295" height="295" fill="none"><style><![CDATA[.B{fill-opacity:.58}.C{fill-rule:evenodd}]]></style><g fill="#c4c4c4" class="B"><path d="M53.22 0h-7.3v33.795c0 .576.467 1.044 1.048 1.044h5.203c.58 0 1.048-.467 1.048-1.044V0zM42.135 0h2.703v33.2h-1.655c-.58 0-1.048-.467-1.048-1.044V0zM0 36.338v-8.275h5.808a1.83 1.83 0 0 1 1.831 1.828v4.62a1.83 1.83 0 0 1-1.831 1.828H0zm0 3.3v-2.483h4.324v2.8C2.91 39.763 1.466 39.66 0 39.65zm0 68.68c18.433-.126 33.337-15.082 33.337-33.512S18.433 41.43 0 41.303v8.378c13.798.126 24.944 11.33 24.944 25.134S13.798 99.823 0 99.95v8.378zm0 111.496v-5.45l1.812 1.812c.504.504.504 1.323 0 1.827L0 219.823zm0 8.765v-7.466l2.965-2.965c.402-.402 1.06-.118 1.146.36.183 1.005 1.142 1.507 3.098 1.87.373.068.453.538.14.85L0 228.588zM44.84 295h-2.703v-17.073c0-.576.47-1.043 1.048-1.043h1.655V295zm8.38 0h-7.3v-18.702c0-.577.467-1.044 1.048-1.044h5.203c.58 0 1.048.467 1.048 1.044V295zm34.873 0v-18.116H54.3V295h11.507c.583-2.447 2.773-4.267 5.388-4.267a5.55 5.55 0 0 1 5.39 4.267h11.507zm8.38 0h-7.3v-18.702c0-.577.47-1.044 1.048-1.044h5.203c.58 0 1.048.467 1.048 1.044V295zm3.516 0h-2.704v-18.116h1.656c.578 0 1.048.467 1.048 1.043V295zm126.058 0h-7.8l-.275-.276c-1.076-1.075-1.076-2.82-.001-3.894s2.82-1.075 3.895 0l4.17 4.17zm20.814-26.516c.65.5.646 1.464.062 2.048s-1.525.572-2.195.1a9.3 9.3 0 0 0-1.885-1.052c-1.13-.468-2.342-.7-3.566-.7s-2.434.24-3.565.7a9.3 9.3 0 0 0-1.885 1.051c-.67.483-1.6.494-2.194-.1s-.6-1.54.06-2.048a12.29 12.29 0 0 1 2.873-1.676 12.28 12.28 0 0 1 4.71-.936 12.32 12.32 0 0 1 4.71.937 12.36 12.36 0 0 1 2.874 1.678z"/><path d="M250.176 295h-21.778a20.2 20.2 0 0 1-3.355-2.708c-7.866-7.867-7.87-20.618-.006-28.48s20.615-7.86 28.48.005 7.868 20.618.005 28.48c-1.038 1.038-2.16 1.94-3.347 2.703zm-20.97-27.02c-5.562 5.56-5.56 14.58.004 20.144s14.583 5.566 20.144.004 5.56-14.58-.003-20.144-14.583-5.566-20.145-.004z" class="C"/><path d="M295 221.122v7.466l-.117.117c-.312.312-.782.23-.85-.14-.363-1.956-.866-2.915-1.87-3.098-.478-.086-.764-.743-.362-1.145l3.2-3.2zm0-6.75v5.45l-3.343 3.343c-.504.504-1.323.505-1.827.001l-28.04-28.04a1.29 1.29 0 0 1 .001-1.827l5.154-5.154c.504-.504 1.323-.505 1.827-.001L295 214.373zm0-173.07h-.235c-18.542 0-33.572 15.004-33.572 33.513s15.03 33.513 33.572 33.513l.235-.001V99.95h-.235c-13.906 0-25.18-11.253-25.18-25.135s11.273-25.135 25.18-25.135H295v-8.378zm0-4.138v2.483l-.235-.001a33.87 33.87 0 0 0-5.388.429v-2.912H295zm0-9.102v8.275h-7.108a1.83 1.83 0 0 1-1.831-1.828V29.9a1.83 1.83 0 0 1 1.831-1.828H295zM228.398 0h21.778a20.17 20.17 0 0 1-21.778 0zM218.26 0h7.8l.456.456c1.075 1.076 1.076 2.82 0 3.895s-2.82 1.075-3.894-.001L218.26 0zM97.285 0h2.704v32.165c0 .576-.47 1.044-1.048 1.044h-1.656V0zm-8.1 0h7.3v33.795c0 .576-.468 1.044-1.048 1.044h-5.203c-.58 0-1.048-.467-1.048-1.044V0zM54.3 0v33.2h33.792V0H76.586a5.61 5.61 0 0 1 .152 1.3 5.57 5.57 0 0 1-2.702 4.782V19.36h-5.95V5.9a5.57 5.57 0 0 1-2.43-4.6 5.62 5.62 0 0 1 .152-1.3H54.3zM295 70.193c-1.905-.313-3.7.653-4.163 2.298-.488 1.778.792 3.678 2.86 4.243a4.46 4.46 0 0 0 1.09.159l.214.03v-6.73zm0 23.57a20.15 20.15 0 0 1-6.362-.952 19.78 19.78 0 0 1-9.116-6.08 19.17 19.17 0 0 1-4.373-9.915 19.01 19.01 0 0 1 1.73-10.667c1.598-3.323 4.13-6.132 7.295-8.1 2.863-1.78 6.14-2.803 9.514-2.983.594-.032 1.077-.5 1.077-1.105s-.483-1.078-1.078-1.05a22.29 22.29 0 0 0-10.689 3.321c-3.52 2.186-6.33 5.308-8.106 9s-2.442 7.803-1.923 11.852a21.29 21.29 0 0 0 4.86 11.017 21.98 21.98 0 0 0 10.13 6.754 22.39 22.39 0 0 0 7.041 1.06v-2.15zM0 95.915a22.4 22.4 0 0 0 5.203-.669c4.037-1 7.698-3.125 10.554-6.096a21.38 21.38 0 0 0 5.338-9.608c.148-.6-.247-1.17-.845-1.28s-1.16.276-1.3.86a19.25 19.25 0 0 1-4.78 8.555 19.86 19.86 0 0 1-9.499 5.487 20.16 20.16 0 0 1-4.66.602v2.15zm0-18.992l12.233 1.78c1.033.282 2.07-.2 2.313-1.1s-.396-1.84-1.43-2.12L1.48 70.712a4.42 4.42 0 0 0-1.02-.418 4.34 4.34 0 0 0-.462-.1v6.73zm135.92-23.86l1.732-1.73c-.583-.783-.858-1.415-.655-1.617s.834.073 1.617.655l3.03-3.03a.43.43 0 0 0 0-.609l-3.286-3.287a.43.43 0 0 0-.609 0l-3.45 3.45a.43.43 0 0 1-.609 0l-.527-.527a.43.43 0 0 1 0-.609l3.45-3.45a.43.43 0 0 0 .001-.609l-2.638-2.637a.43.43 0 0 0-.609 0l-3.45 3.45a.43.43 0 0 1-.609 0l-.7-.7a.43.43 0 0 1 0-.609l3.45-3.45a.43.43 0 0 0 0-.609l-3.287-3.287a.43.43 0 0 0-.609 0l-3.03 3.03c.582.783.857 1.415.655 1.617s-.834-.073-1.618-.655l-1.73 1.73a.43.43 0 0 0 0 .609l3.773 3.773a.43.43 0 0 1 0 .609l-.04.04a.43.43 0 0 0 0 .609l4.26 4.26a.43.43 0 0 0 .609 0l.04-.04a.43.43 0 0 1 .609 0l3.6 3.6a.43.43 0 0 0 .609 0zm23.296 26.703a.42.42 0 0 0-.004.605l4.164 4.16c.168.168.44.168.617.008a8.09 8.09 0 0 1 5.436-2.069c2.16.007 4.234.872 5.766 2.405s2.4 3.606 2.4 5.765a8.09 8.09 0 0 1-2.066 5.438.45.45 0 0 0 .008.617l4.164 4.16c.168.168.442.168.605-.005a14.75 14.75 0 0 0 4.012-10.19c-.016-3.942-1.598-7.73-4.396-10.527a14.98 14.98 0 0 0-10.53-4.39 14.76 14.76 0 0 0-10.186 4.02zm3.69 6.043a.43.43 0 0 0 0-.609l-4.912-4.908a.43.43 0 0 0-.609 0l-3.6 3.613a.43.43 0 0 0 0 .609l4.9 4.908a.43.43 0 0 0 .609 0l3.6-3.613zm11.813 11.195a.43.43 0 0 0-.609 0l-3.6 3.613a.43.43 0 0 0 0 .609l5.074 5.07a.43.43 0 0 0 .609 0l3.6-3.614a.43.43 0 0 0 0-.609l-5.074-5.07zM153.855 85.73a.42.42 0 0 0-.604.005 14.76 14.76 0 0 0-4.013 10.189c.016 3.942 1.598 7.73 4.396 10.527s6.587 4.375 10.53 4.4c3.8.013 7.442-1.43 10.186-4.02a.42.42 0 0 0 .004-.605l-4.164-4.16c-.168-.168-.44-.168-.617-.008-1.485 1.335-3.42 2.075-5.435 2.07a8.2 8.2 0 0 1-5.767-2.404c-1.533-1.533-2.4-3.606-2.4-5.765a8.09 8.09 0 0 1 2.066-5.438c.16-.176.16-.45-.008-.617l-4.164-4.16zm-9.698-10.064a1.29 1.29 0 0 1-1.827 0l-28.04-28.04c-.504-.505-.503-1.323.001-1.827l5.154-5.155a1.29 1.29 0 0 1 1.827 0l28.04 28.04c.504.504.503 1.323-.001 1.827l-5.154 5.155zm6.307-5.01c.403-.402 1.06-.118 1.147.36.183 1.005 1.142 1.508 3.097 1.87.373.068.454.538.14.85l-7.466 7.466c-.312.312-.782.232-.85-.14-.363-1.955-.866-2.915-1.87-3.098-.478-.086-.764-.743-.362-1.145l6.164-6.164zm-.12 15.626c.195.298.65.247.787-.08.834-1.986 2.052-3.814 3.606-5.367a16.76 16.76 0 0 1 5.124-3.5.45.45 0 0 0 .075-.784l-3.46-2.25a.65.65 0 0 0-.81.086l-7.54 7.54c-.215.215-.252.553-.085.808l2.304 3.547zm44.032-62.95c-1.075-1.076-2.82-1.076-3.895-.001s-1.075 2.82.001 3.895l4.626 4.626c1.076 1.076 2.82 1.076 3.895 0s1.075-2.82-.001-3.895l-4.626-4.626zm22.707-21.976c.43-.43 1.128-.43 1.56 0l2.336 2.336a1.1 1.1 0 0 1 0 1.559l-1.36 1.362c-.43.43-1.13.43-1.56 0l-2.335-2.336c-.43-.43-.43-1.13-.001-1.56l1.362-1.362zm-3.066 2.2a1.1 1.1 0 0 0-1.559 0L194.8 21.214c-.43.43-.43 1.128.001 1.56l4.892 4.892c.43.43 1.13.43 1.56 0L218.9 9.998c.43-.43.43-1.13 0-1.56l-4.893-4.892zM188.413 27.6c.403-.403 1.057-.403 1.46 0l5 5c.403.404.403 1.057 0 1.46a1.03 1.03 0 0 1-1.46 0l-4.992-5c-.403-.403-.403-1.057 0-1.46zM23.4 48.635l3.413-2.816a1.66 1.66 0 0 1 2.334.221l4.28 5.168c.583.704.484 1.748-.22 2.33l-3.44 2.838c-1.727-2.9-3.877-5.5-6.365-7.742zM11.712 227.87a.42.42 0 0 1 .005-.605c2.744-2.6 6.387-4.03 10.186-4.02 3.942.014 7.73 1.593 10.53 4.4s4.38 6.584 4.396 10.526a14.76 14.76 0 0 1-4.013 10.189.42.42 0 0 1-.605.005l-4.164-4.16a.45.45 0 0 1-.008-.618c1.334-1.486 2.075-3.422 2.066-5.437-.01-2.16-.876-4.233-2.4-5.765s-3.607-2.398-5.767-2.405c-2.016-.006-3.95.734-5.435 2.07-.178.16-.45.16-.617-.008l-4.164-4.16zm3.693 4.83a.43.43 0 0 1 0 .609l-3.6 3.613a.43.43 0 0 1-.609 0l-4.9-4.908a.43.43 0 0 1 0-.609l3.6-3.613a.43.43 0 0 1 .609-.001l4.9 4.9zM26.6 244.503a.43.43 0 0 1 .609 0l5.074 5.07a.43.43 0 0 1 0 .609l-3.6 3.614a.43.43 0 0 1-.609 0L23 248.726a.43.43 0 0 1 0-.609l3.6-3.613zM5.75 233.235a.42.42 0 0 1 .604-.005l4.164 4.162a.45.45 0 0 1 .008.617 8.09 8.09 0 0 0-2.066 5.438 8.21 8.21 0 0 0 2.409 5.765 8.2 8.2 0 0 0 5.767 2.404 8.09 8.09 0 0 0 5.435-2.069c.178-.16.45-.16.617.008l4.164 4.16a.42.42 0 0 1-.005.605 14.76 14.76 0 0 1-10.186 4.019c-3.942-.013-7.73-1.593-10.53-4.4s-4.38-6.585-4.396-10.527a14.76 14.76 0 0 1 4.013-10.189zm-2.118.467a.45.45 0 0 1-.787.08L.54 230.236c-.167-.255-.13-.594.084-.808l7.54-7.54a.65.65 0 0 1 .81-.086l3.46 2.25a.45.45 0 0 1-.075.784 16.76 16.76 0 0 0-8.73 8.868zm95.792-110.67c.584-.584.588-1.54-.062-2.048a12.36 12.36 0 0 0-2.874-1.678c-1.493-.618-3.094-.937-4.7-.937a12.34 12.34 0 0 0-4.71.936c-1.03.427-1.998 1-2.873 1.676-.65.5-.645 1.464-.06 2.048s1.525.573 2.195.1a9.29 9.29 0 0 1 1.885-1.051 9.32 9.32 0 0 1 3.565-.709c1.223 0 2.435.242 3.565.7.67.277 1.3.63 1.885 1.052.67.483 1.6.495 2.195-.1z"/><path d="M77.543 144.79c7.866 7.867 20.617 7.87 28.48.006s7.86-20.614-.005-28.48-20.618-7.868-28.48-.005-7.86 20.614.005 28.48zm4.167-4.167c-5.564-5.563-5.565-14.583-.004-20.144s14.58-5.56 20.145.004 5.565 14.582.003 20.144-14.58 5.56-20.144-.004z" class="C"/><path d="M74.378 143.33c-1.076-1.075-2.82-1.076-3.895 0s-1.075 2.82.001 3.894l4.626 4.626c1.076 1.076 2.82 1.076 3.895.001s1.075-2.82-.001-3.895l-4.626-4.626zm-31.396 27.5c1.075-1.075 2.82-1.075 3.895.001l4.626 4.626c1.076 1.076 1.076 2.82.001 3.895s-2.82 1.075-3.895-.001l-4.626-4.626c-1.076-1.076-1.076-2.82-.001-3.895zm28.16-21.974a1.1 1.1 0 0 0-1.559 0l-1.362 1.36c-.43.43-.43 1.13 0 1.56l2.336 2.336c.43.43 1.13.43 1.56 0l1.362-1.362c.43-.43.43-1.128 0-1.56l-2.336-2.336zm-6.184 2.2a1.1 1.1 0 0 1 1.559 0l4.892 4.893c.43.43.43 1.128 0 1.56L53.74 175.167c-.43.43-1.13.43-1.56-.001l-4.893-4.892c-.43-.43-.43-1.13 0-1.56l17.668-17.668zM42.374 175.1c-.403-.403-1.057-.403-1.46 0a1.03 1.03 0 0 0 0 1.46l5 5a1.03 1.03 0 0 0 1.46.001c.403-.403.403-1.057 0-1.46l-5-5zM271.447 48.278l-3.413-2.816a1.66 1.66 0 0 0-2.334.221l-4.28 5.168c-.583.705-.484 1.748.222 2.33l3.44 2.84c1.727-2.9 3.878-5.5 6.366-7.742zm-35.854 80.02c.23-.95.564-1.324 1.623-1.63V116.62c0-24.064-37.037-24.455-37.037 0v10.048c.975.253 1.33.6 1.622 1.63h3.1l.002-11.677c0-17.608 27.573-18.195 27.573 0v11.677h3.108zm-4.053 0h-3.245V116.62c0-12.628-19.194-12.22-19.194 0v11.677h-3.245V116.62c0-16.973 25.684-16.7 25.684 0v11.677zm-38.12.5c0-.577.467-1.044 1.048-1.044h5.203c.578 0 1.048.467 1.048 1.044v52.497c0 .576-.47 1.044-1.048 1.044h-5.203c-.58 0-1.048-.468-1.048-1.044v-52.497zm43.255 0c0-.577.47-1.044 1.048-1.044h5.202c.58 0 1.048.467 1.048 1.044v52.497c0 .576-.467 1.044-1.048 1.044h-5.202c-.58 0-1.048-.468-1.048-1.044v-52.497zm9.765.586h-1.656v51.325h1.656c.578 0 1.048-.467 1.048-1.044v-49.238c0-.576-.47-1.043-1.048-1.043zm-56.805 1.043c0-.576.47-1.043 1.048-1.043h1.656v51.325h-1.656c-.578 0-1.048-.467-1.048-1.044v-49.238z"/><path d="M201.8 129.384h33.792v51.325H201.8v-51.325zm19.735 24.2a5.57 5.57 0 0 0 2.702-4.783c0-3.074-2.48-5.567-5.542-5.567s-5.54 2.493-5.54 5.567a5.57 5.57 0 0 0 2.432 4.61v13.45h5.948v-13.276z" class="C"/><path d="M283.42 200.562l1.732-1.73c-.583-.784-.858-1.415-.655-1.618s.834.073 1.617.655l3.03-3.03a.43.43 0 0 0 0-.609l-3.286-3.287a.43.43 0 0 0-.609 0l-3.45 3.45a.43.43 0 0 1-.609 0l-.527-.527a.43.43 0 0 1 0-.609l3.45-3.45a.43.43 0 0 0 .001-.609l-2.638-2.637a.43.43 0 0 0-.609 0l-3.45 3.45a.43.43 0 0 1-.609 0l-.7-.7a.43.43 0 0 1 0-.609l3.45-3.45a.43.43 0 0 0 0-.609l-3.287-3.286a.43.43 0 0 0-.609 0l-3.03 3.03c.582.783.857 1.415.655 1.617s-.834-.072-1.618-.655l-1.73 1.732a.43.43 0 0 0 0 .609l3.773 3.773a.43.43 0 0 1 0 .609l-.04.04a.43.43 0 0 0 0 .609l4.26 4.26a.43.43 0 0 0 .609-.001l.04-.04a.43.43 0 0 1 .609 0l3.6 3.6a.43.43 0 0 0 .609 0zM138.56 177.4a1.83 1.83 0 0 1 1.831-1.828h12.916a1.83 1.83 0 0 1 1.832 1.828v4.6a1.83 1.83 0 0 1-1.832 1.828H140.39A1.83 1.83 0 0 1 138.56 182v-4.62zm7.627 23.023c.595-.03 1.078.456 1.078 1.05s-.483 1.073-1.077 1.104a20.06 20.06 0 0 0-9.514 2.984 19.5 19.5 0 0 0-7.295 8.1 19.01 19.01 0 0 0-1.73 10.667 19.17 19.17 0 0 0 4.373 9.916 19.8 19.8 0 0 0 9.116 6.078c3.566 1.138 7.388 1.26 11.022.35a19.86 19.86 0 0 0 9.499-5.486 19.2 19.2 0 0 0 4.78-8.556c.15-.583.718-.97 1.3-.86.6.113.994.692.845 1.282-.902 3.593-2.738 6.904-5.337 9.608-2.857 2.97-6.517 5.085-10.555 6.096a22.42 22.42 0 0 1-12.246-.389c-3.962-1.265-7.475-3.608-10.13-6.754s-4.34-6.968-4.86-11.017.147-8.16 1.923-11.852 4.587-6.814 8.106-9c3.215-1.997 6.9-3.14 10.7-3.32zm13.546 25.8c1.033.283 2.07-.2 2.313-1.098s-.396-1.84-1.43-2.122l-11.635-4.77a4.45 4.45 0 0 0-1.019-.418c-2.066-.565-4.137.42-4.625 2.197s.792 3.678 2.86 4.243c.366.1.732.15 1.1.158l12.447 1.8z"/><path d="M147.265 255.828c18.54 0 33.572-15.004 33.572-33.513s-15.03-33.513-33.572-33.513-33.572 15.005-33.572 33.513 15.03 33.513 33.572 33.513zm0-8.378c-13.906 0-25.18-11.253-25.18-25.135s11.273-25.134 25.18-25.134 25.18 11.253 25.18 25.134-11.273 25.135-25.18 25.135z" class="C"/><path d="M123.947 195.777l-3.413-2.816a1.66 1.66 0 0 0-2.334.221l-4.28 5.17c-.583.704-.484 1.747.222 2.33l3.44 2.838a33.72 33.72 0 0 1 6.366-7.742zm50.355-2.457l-3.413 2.816a33.69 33.69 0 0 1 6.366 7.742l3.44-2.838c.705-.583.804-1.626.22-2.33l-4.28-5.17a1.66 1.66 0 0 0-2.334-.221zm-32.425-5.743v-2.912h9.947v2.8a33.94 33.94 0 0 0-4.56-.307 33.81 33.81 0 0 0-5.388.43zm-53.784 88.22c.228-.95.564-1.324 1.622-1.63V264.12c0-24.064-37.037-24.455-37.037 0v10.048c.975.253 1.33.6 1.622 1.63h3.1l.002-11.677c0-17.608 27.573-18.195 27.573 0v11.677h3.1zm-4.053 0h-3.245V264.12c0-12.628-19.194-12.22-19.194 0v11.677h-3.245V264.12c0-16.973 25.684-16.7 25.684 0v11.677z"/></g></svg>